<svg xmlns="http://www.w3.org/2000/svg" viewBox="0 0 64 64"><title>Artboard-36</title><g id="Invoice"><path d="M35,16.1924a1.8056,1.8056,0,0,0-1.37-1.7539L33,14.2807V18h.1924A1.81,1.81,0,0,0,35,16.1924Z" style="fill:#1b1b1e"/><rect x="15" y="39" width="2" height="2" style="fill:#1b1b1e"/><rect x="15" y="47" width="2" height="2" style="fill:#1b1b1e"/><rect x="15" y="55" width="2" height="2" style="fill:#1b1b1e"/><polygon points="46 63.414 54.414 55 46 55 46 63.414" style="fill:#1b1b1e"/><path d="M44,54a1,1,0,0,1,1-1H55V1a1,1,0,0,0-1-1H10A1,1,0,0,0,9,1V63a1,1,0,0,0,1,1H44Zm6-7H22a1,1,0,0,1,0-2H50a1,1,0,0,1,0,2ZM33,50a1,1,0,0,1-1,1H22a1,1,0,0,1,0-2H32A1,1,0,0,1,33,50ZM21,42a1,1,0,0,1,1-1H32a1,1,0,0,1,0,2H22A1,1,0,0,1,21,42Zm29-3H22a1,1,0,0,1,0-2H50a1,1,0,0,1,0,2ZM21,34a1,1,0,0,1,1-1H32a1,1,0,0,1,0,2H22A1,1,0,0,1,21,34Zm29-3H22a1,1,0,0,1,0-2H50a1,1,0,0,1,0,2ZM42,12h3a1,1,0,0,1,0,2H42a1,1,0,0,1,0-2ZM27,16a1,1,0,0,1,2,0v.1924A1.81,1.81,0,0,0,30.8076,18H31V13.78l-1.1157-.2792A3.8073,3.8073,0,0,1,30.8076,6H31V5a1,1,0,0,1,2,0V6h.1924A3.8118,3.8118,0,0,1,37,9.8076V10a1,1,0,0,1-2,0V9.8076A1.81,1.81,0,0,0,33.1924,8H33v4.22l1.1157.2792A3.8073,3.8073,0,0,1,33.1924,20H33v1a1,1,0,0,1-2,0V20h-.1924A3.8118,3.8118,0,0,1,27,16.1924Zm-8-4h3a1,1,0,0,1,0,2H19a1,1,0,0,1,0-2ZM14,25H50a1,1,0,0,1,0,2H14a1,1,0,0,1,0-2Zm5,33a1,1,0,0,1-1,1H14a1,1,0,0,1-1-1V54a1,1,0,0,1,1-1h4a1,1,0,0,1,1,1Zm0-8a1,1,0,0,1-1,1H14a1,1,0,0,1-1-1V46a1,1,0,0,1,1-1h4a1,1,0,0,1,1,1Zm0-8a1,1,0,0,1-1,1H14a1,1,0,0,1-1-1V38a1,1,0,0,1,1-1h4a1,1,0,0,1,1,1Zm0-8a1,1,0,0,1-1,1H14a1,1,0,0,1-1-1V30a1,1,0,0,1,1-1h4a1,1,0,0,1,1,1ZM32,59H22a1,1,0,0,1,0-2H32a1,1,0,0,1,0,2Zm9-4H22a1,1,0,0,1,0-2H41a1,1,0,0,1,0,2Z" style="fill:#1b1b1e"/><rect x="15" y="31" width="2" height="2" style="fill:#1b1b1e"/><path d="M30.8076,8a1.8077,1.8077,0,0,0-.438,3.5615l.63.1578V8Z" style="fill:#1b1b1e"/></g></svg>